<svg xmlns="http://www.w3.org/2000/svg" viewBox="0 0 64 64"><title>to-do-list</title><g id="to-do-list"><polyline points="47 8 59 8 59 62 5 62 5 8 17 8" fill="#ccc"/><polyline points="47 11 59 11 59 59 5 59 5 11 17 11" fill="#fff"/><rect x="11" y="17" width="10" height="10" fill="#ffcb47"/><rect x="11" y="32" width="10" height="10" fill="#ffcb47"/><rect x="11" y="47" width="10" height="10" fill="#ff504d"/><path d="M23,7V5a3,3,0,0,0-3-3h0a3,3,0,0,0-3,3V7" fill="#5ce7ff"/><polyline points="17 7 17 12 23 12 23 7" fill="#00c9e0"/><path d="M47,8V5a3,3,0,0,0-3-3h0a3,3,0,0,0-3,3V8" fill="#5ce7ff"/><polyline points="41 7 41 12 47 12 47 7" fill="#00c9e0"/><line x1="23" y1="8" x2="41" y2="8" fill="none" stroke="#3e3948" stroke-miterlimit="10" stroke-width="2"/><polyline points="47 8 59 8 59 62 5 62 5 8 17 8" fill="none" stroke="#3e3948" stroke-miterlimit="10" stroke-width="2"/><path d="M20,2h0a3,3,0,0,1,3,3v7a0,0,0,0,1,0,0H17a0,0,0,0,1,0,0V5A3,3,0,0,1,20,2Z" fill="none" stroke="#3e3948" stroke-miterlimit="10" stroke-width="2"/><path d="M44,2h0a3,3,0,0,1,3,3v7a0,0,0,0,1,0,0H41a0,0,0,0,1,0,0V5a3,3,0,0,1,3-3Z" fill="none" stroke="#3e3948" stroke-miterlimit="10" stroke-width="2"/><line x1="9" y1="8" x2="9" y2="11" fill="none" stroke="#3e3948" stroke-miterlimit="10" stroke-width="2"/><line x1="13" y1="8" x2="13" y2="11" fill="none" stroke="#3e3948" stroke-miterlimit="10" stroke-width="2"/><line x1="55" y1="8" x2="55" y2="11" fill="none" stroke="#3e3948" stroke-miterlimit="10" stroke-width="2"/><line x1="51" y1="8" x2="51" y2="11" fill="none" stroke="#3e3948" stroke-miterlimit="10" stroke-width="2"/><line x1="38" y1="8" x2="38" y2="11" fill="none" stroke="#3e3948" stroke-miterlimit="10" stroke-width="2"/><line x1="34" y1="8" x2="34" y2="11" fill="none" stroke="#3e3948" stroke-miterlimit="10" stroke-width="2"/><line x1="30" y1="8" x2="30" y2="11" fill="none" stroke="#3e3948" stroke-miterlimit="10" stroke-width="2"/><line x1="26" y1="8" x2="26" y2="11" fill="none" stroke="#3e3948" stroke-miterlimit="10" stroke-width="2"/><line x1="19" y1="6" x2="21" y2="6" fill="none" stroke="#3e3948" stroke-miterlimit="10" stroke-width="2"/><line x1="43" y1="6" x2="45" y2="6" fill="none" stroke="#3e3948" stroke-miterlimit="10" stroke-width="2"/><rect x="11" y="17" width="10" height="10" fill="none" stroke="#3e3948" stroke-miterlimit="10" stroke-width="2"/><rect x="11" y="32" width="10" height="10" fill="none" stroke="#3e3948" stroke-miterlimit="10" stroke-width="2"/><rect x="11" y="47" width="10" height="10" fill="none" stroke="#3e3948" stroke-miterlimit="10" stroke-width="2"/><line x1="25" y1="18" x2="55" y2="18" fill="none" stroke="#3e3948" stroke-miterlimit="10" stroke-width="2"/><line x1="25" y1="22" x2="55" y2="22" fill="none" stroke="#3e3948" stroke-miterlimit="10" stroke-width="2"/><line x1="25" y1="26" x2="51" y2="26" fill="none" stroke="#3e3948" stroke-miterlimit="10" stroke-width="2"/><line x1="25" y1="48" x2="55" y2="48" fill="none" stroke="#3e3948" stroke-miterlimit="10" stroke-width="2"/><line x1="25" y1="52" x2="55" y2="52" fill="none" stroke="#3e3948" stroke-miterlimit="10" stroke-width="2"/><line x1="25" y1="56" x2="45" y2="56" fill="none" stroke="#3e3948" stroke-miterlimit="10" stroke-width="2"/><line x1="25" y1="33" x2="55" y2="33" fill="none" stroke="#3e3948" stroke-miterlimit="10" stroke-width="2"/><line x1="25" y1="37" x2="55" y2="37" fill="none" stroke="#3e3948" stroke-miterlimit="10" stroke-width="2"/><line x1="25" y1="41" x2="40" y2="41" fill="none" stroke="#3e3948" stroke-miterlimit="10" stroke-width="2"/><polyline points="13.54 35.51 15.54 38.51 22.54 30.51" fill="none" stroke="#3e3948" stroke-miterlimit="10" stroke-width="2"/><polyline points="13.54 20.51 15.54 23.51 22.54 15.51" fill="none" stroke="#3e3948" stroke-miterlimit="10" stroke-width="2"/></g></svg>